<!--?xml version="1.0" standalone="no"?-->
              <svg id="sw-js-blob-svg" viewBox="0 0 100 100" xmlns="http://www.w3.org/2000/svg" version="1.1">
                    <defs> 
                        <linearGradient id="sw-gradient" x1="0" x2="1" y1="1" y2="0">
                            <stop id="stop1" stop-color="rgba(255, 255, 255, 1)" offset="0%"></stop>
                            <stop id="stop2" stop-color="rgba(0, 0, 0, 1)" offset="100%"></stop>
                        </linearGradient>
                    </defs>
                <path fill="url(#sw-gradient)" d="M17.4,-24.8C24.2,-22.8,32.3,-20.6,36.1,-15.5C39.8,-10.5,39.2,-2.5,37.1,4.6C35,11.7,31.4,17.9,26.8,23C22.1,28.2,16.4,32.2,9.6,35.6C2.8,39,-5.1,41.6,-10.7,38.9C-16.3,36.1,-19.5,27.9,-23.3,21.4C-27.1,14.9,-31.3,10,-33.8,3.9C-36.2,-2.3,-36.7,-9.6,-34.6,-16.4C-32.5,-23.2,-27.6,-29.3,-21.4,-31.6C-15.2,-33.8,-7.6,-32.1,-1.1,-30.4C5.4,-28.6,10.7,-26.8,17.4,-24.8Z" width="100%" height="100%" transform="translate(50 50)" stroke-width="0" style="transition: 0.3s;" stroke="url(#sw-gradient)"></path>
              </svg>